<?xml version="1.0" encoding="UTF-8"?>
<svg id="Layer_1" data-name="Layer 1" xmlns="http://www.w3.org/2000/svg" width="236" height="236" viewBox="0 0 236 236">
  <defs>
    <style>
      .cls-1 {
        fill: #83ecd3;
        stroke-width: 0px;
      }
    </style>
  </defs>
  <path class="cls-1" d="m118,0C53.3,0,0,53.3,0,118s53.3,118,118,118,118-53.3,118-118S182.7,0,118,0Zm71.1,198.8c0-32.3-24.3-59.8-53.3-67.9,17.8-6.5,29.1-24.3,29.1-43.6,0-25.9-21-46.9-46.9-46.9s-46.9,21-46.9,46.9c0,19.4,12.9,37.2,29.1,43.6-30.7,8.1-53.3,35.6-53.3,67.9-22.6-19.4-37.1-48.5-37.1-80.8-.1-59.8,48.4-108.3,108.2-108.3s108.3,48.5,108.3,108.3c0,32.3-14.5,61.4-37.2,80.8Z"/>
</svg>