<?xml version="1.0" encoding="UTF-8"?>
<svg id="layer" xmlns="http://www.w3.org/2000/svg" width="475.14" height="108.3" viewBox="0 0 475.14 108.3">
  <defs>
    <style>
      .cls-1 {
        letter-spacing: -.02em;
      }

      .cls-2 {
        font-family: Gotham-Medium, Gotham;
        font-size: 27.5px;
        font-weight: 500;
      }

      .cls-2, .cls-3 {
        fill: #636466;
      }

      .cls-4 {
        fill: #e12726;
      }

      .cls-4, .cls-5, .cls-3 {
        stroke-width: 0px;
      }

      .cls-6 {
        letter-spacing: -.03em;
      }

      .cls-5 {
        fill: #b3282d;
      }

      .cls-7 {
        letter-spacing: -.03em;
      }

      .cls-8 {
        letter-spacing: 0em;
      }
    </style>
  </defs>
  <polygon class="cls-3" points="126.5 30.58 126.5 72.04 135.62 72.04 135.62 55.98 155.39 55.98 155.39 47.68 135.62 47.68 135.62 38.89 158.07 38.89 158.07 30.58 126.5 30.58"/>
  <path class="cls-3" d="m178.17,41.24l5.52,13.44h-10.98l5.46-13.44Zm-4.04-10.98l-17.75,41.79h9.29l3.77-9.29h17.54l3.77,9.29h9.56l-17.75-41.79h-8.41Z"/>
  <polygon class="cls-3" points="232.31 30.58 232.31 56.09 212.86 30.58 204.45 30.58 204.45 72.04 213.46 72.04 213.46 45.66 233.57 72.04 241.32 72.04 241.32 30.58 232.31 30.58"/>
  <path class="cls-3" d="m248.31,66.31l5.41-6.45c3.71,3.06,7.65,5.03,12.4,5.03,3.71,0,5.95-1.47,5.95-3.93v-.11c0-2.29-1.42-3.5-8.36-5.3-8.36-2.13-13.77-4.42-13.77-12.67v-.11c0-7.54,6.06-12.51,14.53-12.51,6.06,0,11.2,1.91,15.4,5.3l-4.75,6.88c-3.66-2.57-7.27-4.1-10.76-4.1s-5.35,1.58-5.35,3.61v.11c0,2.73,1.8,3.61,8.96,5.46,8.41,2.19,13.17,5.19,13.17,12.45v.11c0,8.25-6.28,12.84-15.24,12.84-6.28.05-12.62-2.13-17.59-6.61"/>
  <polygon class="cls-3" points="288.35 30.91 297.47 30.91 297.47 47.3 314.3 47.3 314.3 30.91 323.42 30.91 323.42 72.37 314.3 72.37 314.3 55.71 297.47 55.71 297.47 72.37 288.35 72.37 288.35 30.91"/>
  <path class="cls-3" d="m346.15,30.58h8.41l17.75,41.79h-9.56l-3.77-9.29h-17.54l-3.77,9.29h-9.29l17.75-41.79Zm9.56,24.42l-5.52-13.44-5.52,13.44h11.03Z"/>
  <polygon class="cls-3" points="368.16 30.91 377.94 30.91 386.52 58.99 395.8 30.8 403.61 30.8 412.95 58.99 421.53 30.91 431.09 30.91 416.89 72.7 408.97 72.7 399.63 45.55 390.23 72.7 382.31 72.7 368.16 30.91"/>
  <polygon class="cls-3" points="436.33 30.91 467.64 30.91 467.64 39 445.4 39 445.4 47.46 464.96 47.46 464.96 55.55 445.4 55.55 445.4 64.23 467.91 64.23 467.91 72.37 436.33 72.37 436.33 30.91"/>
  <g>
    <path class="cls-4" d="m51.82,19.81L32.22.16C32.03-.03,31.84,0,31.73.03c-.21.05-.38.27-.38.46v13.07c0,.72.3,1.42.83,1.91h0l11.97,11.97,7.65-7.62Z"/>
    <path class="cls-5" d="m18.9,13.34c-.13-.16-.32-.16-.46-.13-.21.05-.35.24-.38.43l.03,13.05c-.11,1.21.81,2.04.81,2.04l18.93,18.93c.11.08.35.3.75.3v-14.9L18.9,13.34Z"/>
    <path class="cls-4" d="m51.82,35.17l-7.62-7.71-5.61,5.61v14.9c.54,0,.83-.38.86-.43l12.38-12.38Z"/>
    <path class="cls-4" d="m72.27.48c0-.35-.27-.48-.48-.48-.11,0-.24.05-.38.16l-19.6,19.63v15.36l19.3-19.3.03-.03c.64-.54,1.1-1.34,1.1-2.07V.48h.03Z"/>
    <polygon class="cls-5" points="51.82 19.81 44.19 27.44 51.82 35.17 51.82 19.81"/>
    <path class="cls-4" d="m19.81,52.06L.16,71.66c-.19.19-.16.38-.13.48.05.21.27.38.46.38h13.07c.72,0,1.42-.3,1.91-.83h0l11.97-11.97-7.62-7.65Z"/>
    <path class="cls-5" d="m13.34,84.97c-.16.13-.16.32-.13.46.05.21.24.35.43.38l13.05-.03c1.21.11,2.04-.81,2.04-.81l18.93-18.93c.08-.11.3-.35.3-.75h-14.9l-19.71,19.68Z"/>
    <path class="cls-4" d="m35.14,52.06l-7.71,7.62,5.61,5.61h14.9c0-.54-.38-.83-.43-.86l-12.38-12.38Z"/>
    <path class="cls-4" d="m.48,31.57c-.32,0-.48.3-.48.48,0,.11.05.24.16.38l19.63,19.6h15.36l-19.3-19.3-.05-.03c-.54-.64-1.34-1.1-2.07-1.1H.48v-.03Z"/>
    <polygon class="cls-5" points="19.81 52.06 27.44 59.68 35.14 52.06 19.81 52.06"/>
    <path class="cls-4" d="m51.98,84.22l19.6,19.65c.19.19.38.16.48.13.21-.05.38-.27.38-.46v-13.07c0-.72-.3-1.42-.83-1.91h0l-12-12-7.62,7.65Z"/>
    <path class="cls-5" d="m84.89,90.66c.13.16.32.16.46.13.21-.05.35-.24.38-.43l-.03-13.05c.11-1.21-.81-2.04-.81-2.04l-18.93-18.9c-.08-.08-.35-.3-.75-.3v14.9l19.68,19.68Z"/>
    <path class="cls-4" d="m51.98,68.86l7.62,7.71,5.61-5.61v-14.9c-.54,0-.83.38-.86.43l-12.38,12.38Z"/>
    <path class="cls-4" d="m31.52,103.52c0,.32.27.48.48.48.11,0,.24-.05.38-.16l19.6-19.63v-15.36l-19.3,19.3-.03.05c-.64.54-1.1,1.34-1.1,2.07v13.24h-.03Z"/>
    <polygon class="cls-5" points="51.98 84.22 59.6 76.57 51.98 68.86 51.98 84.22"/>
    <path class="cls-4" d="m84.25,51.98l19.65-19.6c.19-.19.16-.38.13-.48-.05-.21-.27-.38-.46-.38h-13.07c-.72,0-1.42.3-1.91.83h0l-11.97,11.97,7.62,7.65Z"/>
    <path class="cls-5" d="m90.69,19.03c.16-.13.19-.32.13-.46-.05-.21-.24-.35-.43-.38l-13.05.03c-1.21-.11-2.04.81-2.04.81l-18.93,18.93c-.08.08-.3.35-.3.75h14.9l19.71-19.68Z"/>
    <path class="cls-4" d="m68.89,51.98l7.71-7.62-5.61-5.61h-14.9c0,.54.38.83.43.86l12.38,12.38Z"/>
    <path class="cls-4" d="m103.55,72.43c.35,0,.48-.3.48-.48,0-.11-.05-.24-.16-.38l-19.63-19.6h-15.36l19.3,19.3.05.05c.54.64,1.34,1.1,2.07,1.1h13.24Z"/>
    <polygon class="cls-5" points="84.25 51.98 76.6 44.32 68.89 51.98 84.25 51.98"/>
  </g>
  <text class="cls-2" transform="translate(123.94 99.28)"><tspan x="0" y="0">In</tspan><tspan class="cls-1" x="25.77" y="0">t</tspan><tspan class="cls-8" x="36.63" y="0">e</tspan><tspan class="cls-6" x="53.24" y="0">r</tspan><tspan x="63.91" y="0">acti</tspan><tspan class="cls-7" x="114.89" y="0">v</tspan><tspan x="130.43" y="0">e Media Design</tspan></text>
</svg>