<?xml version="1.0" encoding="UTF-8"?>
<svg id="Layer_1" data-name="Layer 1" xmlns="http://www.w3.org/2000/svg" width="91" height="91" viewBox="0 0 91 91">
  <defs>
    <style>
      .cls-1 {
        fill: #fff;
      }

      .cls-2 {
        fill: #ee6161;
      }
    </style>
  </defs>
  <circle class="cls-1" cx="45.5" cy="45.5" r="45.5"/>
  <path class="cls-2" d="m45.5,0C20.35,0,0,20.35,0,45.5s20.35,45.5,45.5,45.5,45.5-20.35,45.5-45.5S70.65,0,45.5,0Zm16.39,50.55l-21.38,12.35c-1.8,1.04-4.03,1.04-5.83,0-1.81-1.04-2.92-2.97-2.92-5.05v-24.71c0-2.08,1.11-4.01,2.92-5.05.9-.52,1.91-.78,2.92-.78s2.02.26,2.92.78l21.38,12.35c1.8,1.04,2.91,2.97,2.91,5.05s-1.11,4.01-2.92,5.05Z"/>
</svg>