<svg xmlns="http://www.w3.org/2000/svg" xmlns:xlink="http://www.w3.org/1999/xlink" viewBox="0,0,256,256" width="48px" height="48px"><defs><linearGradient x1="8" y1="24" x2="40" y2="24" gradientUnits="userSpaceOnUse" id="color-1"><stop offset="0" stop-color="#7819a2"></stop><stop offset="1" stop-color="#771aa9"></stop></linearGradient></defs><g fill="none" fill-rule="nonzero" stroke="none" stroke-width="1" stroke-linecap="butt" stroke-linejoin="miter" stroke-miterlimit="10" stroke-dasharray="" stroke-dashoffset="0" font-family="none" font-weight="none" font-size="none" text-anchor="none" style="mix-blend-mode: normal"><g transform="scale(5.33333,5.33333)"><path d="M36,6h-24c-3.314,0 -6,2.686 -6,6v24c0,3.314 2.686,6 6,6h24c3.314,0 6,-2.686 6,-6v-24c0,-3.314 -2.686,-6 -6,-6z" fill="#811ca9"></path><path d="M36,40h-24c-2.209,0 -4,-1.791 -4,-4v-24c0,-2.209 1.791,-4 4,-4h24c2.209,0 4,1.791 4,4v24c0,2.209 -1.791,4 -4,4z" fill="url(#color-1)"></path><path d="M15,15.607c0,-0.26 0.192,-0.476 0.451,-0.498c0.547,-0.046 1.652,-0.109 3.628,-0.109c3.588,0 6.101,1.423 6.101,5.317c0,3.512 -2.391,5.573 -6.249,5.573c-0.225,0 -0.45,0 -1.216,0v5.561c0,0.276 -0.224,0.5 -0.5,0.5h-1.715c-0.276,0 -0.5,-0.224 -0.5,-0.5zM17.715,22.919c0,0.275 0.22,0.498 0.495,0.5c0.359,0.002 0.808,0.005 0.959,0.005c2.203,0 3.205,-1.306 3.205,-3.056c0,-1.639 -0.974,-2.917 -3.01,-2.917c-0.435,0 -0.862,0.013 -1.173,0.025c-0.268,0.011 -0.476,0.232 -0.476,0.5z" fill="#ffffff"></path><path d="M33.207,23.267c-0.343,-0.244 -0.743,-0.366 -1.2,-0.366c-0.619,0 -1.104,0.297 -1.452,0.892c-0.35,0.595 -0.523,1.404 -0.523,2.428v5.278c0,0.276 -0.224,0.5 -0.5,0.5h-1.852c-0.276,0 -0.5,-0.224 -0.5,-0.5v-11.1c0,-0.276 0.224,-0.5 0.5,-0.5h1.852c0.276,0 0.5,0.224 0.5,0.5v1.745h0.036c0.451,-1.638 1.263,-2.458 2.437,-2.458c0.3,0 0.535,0.047 0.703,0.142v3.439z" fill="#ffffff"></path></g></g></svg>